<svg xmlns="http://www.w3.org/2000/svg" viewBox="0 0 499.999 500" style="enable-background:new 0 0 499.999 500" xml:space="preserve"><path style="fill:#e0e0e0" d="M466.889 316.203H303.026v-94.845h163.863v94.845zm-162.863-1h161.863v-92.845H304.026v92.845z"/><path style="fill:#f0f0f0" d="M324.954 271.928h108.135v3.172H324.954zM324.954 283.75h115.582v3.461H324.954zM324.954 295.71h115.582v3.461H324.954zM324.954 254.759h37.792v8.229h-37.792z"/><path style="fill:#e0e0e0" d="M303.526 221.857h162.863v15.099H303.526z"/><path style="fill:#fff" d="M453.857 234.7c-.208-.199 1.891-2.73 4.686-5.653 2.797-2.924 5.232-5.132 5.44-4.933.208.199-1.891 2.73-4.688 5.653-2.795 2.923-5.23 5.132-5.438 4.933z"/><path style="fill:#fff" d="M463.984 234.7c-.208.199-2.643-2.01-5.439-4.933-2.798-2.924-4.896-5.455-4.688-5.653s2.642 2.009 5.439 4.933c2.797 2.923 4.896 5.454 4.688 5.653z"/><path style="fill:#e6e6e6" d="M102.363 34.054h162.864v93.845H102.363z"/><path style="fill:#f0f0f0" d="M123.791 84.125h108.134v3.172H123.791zM123.791 95.947h115.582v3.46H123.791zM123.791 107.906h115.582v3.46H123.791zM123.791 66.956h37.792v8.229h-37.792z"/><path style="fill:#e0e0e0" d="M102.363 34.054h162.864v15.098H102.363z"/><path style="fill:#fff" d="M252.136 46.825c-.208-.199 1.891-2.73 4.686-5.653 2.797-2.924 5.232-5.132 5.44-4.934.208.199-1.891 2.729-4.688 5.653-2.794 2.923-5.23 5.132-5.438 4.934z"/><path style="fill:#fff" d="M262.263 46.825c-.208.199-2.643-2.01-5.439-4.933-2.798-2.924-4.895-5.455-4.688-5.653.208-.199 2.643 2.01 5.439 4.934 2.798 2.922 4.896 5.453 4.688 5.652z"/><path style="fill:#e0e0e0" d="M203.544 208.39H39.681v-94.845h163.863v94.845zm-162.863-1h161.863v-92.845H40.681v92.845z"/><path style="fill:#f0f0f0" d="M61.608 164.115h108.135v3.172H61.608zM61.608 175.938h115.583v3.46H61.608zM61.608 187.897h115.583v3.46H61.608zM61.608 146.946H99.4v8.23H61.608z"/><path style="fill:#e0e0e0" d="M40.181 114.045h162.863v15.099H40.181z"/><path style="fill:#e6e6e6" d="M200.352 230.124h192.304V402.28H200.352z"/><path style="fill:#f0f0f0" d="M59.381 175.892h150.638v156.509H59.381z"/><path style="fill:#e0e0e0" d="M59.381 175.892h150.638v17.053H59.381z"/><path style="fill:#fff" d="M71.821 184.244c0 1.826-1.416 3.306-3.163 3.306-1.747 0-3.163-1.48-3.163-3.306s1.416-3.306 3.163-3.306c1.747 0 3.163 1.48 3.163 3.306zM84.649 184.244c0 1.826-1.416 3.306-3.163 3.306-1.747 0-3.163-1.48-3.163-3.306s1.416-3.306 3.163-3.306c1.747 0 3.163 1.48 3.163 3.306zM97.478 184.244c0 1.826-1.416 3.306-3.163 3.306-1.747 0-3.163-1.48-3.163-3.306s1.416-3.306 3.163-3.306c1.747 0 3.163 1.48 3.163 3.306z"/><path style="fill:#f0f0f0" d="M253.081 68.285h192.304v191.661H253.081z"/><path style="fill:#e0e0e0" d="M253.081 68.285h192.304v22.45H253.081z"/><path style="fill:#fff" d="M269.458 79.279c0 2.404-1.864 4.353-4.164 4.353-2.299 0-4.163-1.949-4.163-4.353s1.864-4.352 4.163-4.352c2.299 0 4.164 1.949 4.164 4.352zM285.128 76.336c1.699 1.7 1.759 4.396.133 6.021-1.626 1.626-4.322 1.566-6.021-.133-1.699-1.7-1.76-4.396-.134-6.022 1.625-1.626 4.321-1.566 6.022.134zM303.236 79.279c0 2.404-1.864 4.353-4.164 4.353s-4.163-1.949-4.163-4.353 1.863-4.352 4.163-4.352c2.3 0 4.164 1.949 4.164 4.352z"/><path style="fill:#263238" d="M403.842 453.131c0 .143-69.439.261-155.077.261-85.667 0-155.092-.117-155.092-.261 0-.144 69.424-.261 155.092-.261 85.638.001 155.077.118 155.077.261z"/><path style="fill:#e8505b" d="M336.179 330.712c-15.448-10.793-18.953-30.826-18.342-48.834.102-3.006-.229-6.175 1.201-8.813 1.431-2.637 4.767-4.439 7.458-3.173 2.232 1.051 3.205 3.647 4.454 5.795a17.579 17.579 0 0 0 7.05 6.733c1.914.993 4.282 1.601 6.172.559 2.593-1.431 2.898-5.013 2.88-8.003l-.104-16.716c-.019-2.989-.027-6.042.902-8.879.93-2.837 2.984-5.473 5.828-6.27 2.845-.796 6.361.843 6.962 3.77.25 1.218.002 2.482.085 3.723.083 1.241.661 2.614 1.84 2.96 1.193.351 2.39-.497 3.283-1.372 3.086-3.018 5.18-6.907 7.137-10.774s3.856-7.826 6.656-11.119 6.673-5.901 10.954-6.144c4.282-.242 8.844 2.4 9.926 6.604 1.085 4.215-1.374 8.491-4.05 11.903a66.736 66.736 0 0 1-13.895 13.245c-.942.669-1.964 1.392-2.324 2.499-.649 1.993 1.239 3.973 3.207 4.628 2.228.742 4.646.511 6.977.785 2.331.274 4.857 1.303 5.738 3.506 1.225 3.056-1.331 6.259-3.846 8.356a57.17 57.17 0 0 1-16.919 9.767c-2.199.805-4.514 1.511-6.287 3.056-1.773 1.546-2.844 4.232-1.772 6.338 1.072 2.108 3.822 2.782 6.126 2.354 2.303-.427 4.365-1.678 6.561-2.506 4.108-1.551 9.414-1.268 12.046 2.283 1.729 2.334 1.882 5.584 1.007 8.366-.874 2.782-2.648 5.179-4.532 7.389-6.585 7.726-15.015 13.945-24.546 17.25-9.53 3.304-18.361 4.198-27.833.734"/><path style="fill:#263238" d="M396.202 226.658c.007.007-.092.104-.29.284l-.888.792c-.783.692-1.938 1.713-3.389 3.068a112.367 112.367 0 0 0-11.419 12.325c-2.225 2.771-4.536 5.908-6.957 9.321-2.415 3.419-4.973 7.088-7.517 11.046-2.544 3.956-5.091 8.196-7.376 12.777-1.152 2.285-2.18 4.677-3.229 7.115l-3.172 7.414c-4.248 10.025-7.984 19.717-10.654 28.77-2.685 9.045-4.283 17.428-4.982 24.531-.717 7.106-.57 12.906-.28 16.886.156 1.99.309 3.535.449 4.577l.138 1.189c.028.268.038.407.029.409-.01.001-.038-.134-.085-.4l-.192-1.182c-.176-1.039-.363-2.582-.553-4.575-.355-3.983-.563-9.804.107-16.941.652-7.134 2.217-15.559 4.885-24.64 2.65-9.088 6.382-18.809 10.634-28.842l3.176-7.417c1.048-2.432 2.087-4.844 3.249-7.14 2.305-4.604 4.871-8.854 7.434-12.811 2.561-3.961 5.137-7.626 7.569-11.035 2.441-3.406 4.776-6.537 7.026-9.3 4.484-5.546 8.623-9.582 11.577-12.236a99.193 99.193 0 0 1 3.46-2.994l.923-.75c.21-.167.321-.249.327-.241z"/><path style="fill:#263238" d="M358.043 276.003c-.037.006-.139-.448-.292-1.275a81.101 81.101 0 0 1-.555-3.518c-.423-2.977-.866-7.107-1.338-11.663-.472-4.559-.973-8.671-1.439-11.633a165.367 165.367 0 0 0-.574-3.505c-.143-.827-.204-1.289-.167-1.298.037-.008.169.438.376 1.253.212.814.469 2.004.747 3.482.567 2.956 1.132 7.078 1.603 11.641l1.178 11.674c.15 1.403.278 2.586.381 3.535.087.836.119 1.302.08 1.307z"/><path style="fill:#263238" d="M396.481 268.82c.001.038-.546.102-1.533.184-.986.088-2.414.207-4.173.411-3.521.38-8.365 1.075-13.677 2.076-5.311 1.011-10.079 2.13-13.504 3.039-1.717.442-3.096.838-4.051 1.106-.954.271-1.487.404-1.5.368-.012-.037.5-.239 1.436-.575a73.045 73.045 0 0 1 4.012-1.278c3.408-1.009 8.179-2.192 13.506-3.207 5.327-1.003 10.199-1.64 13.74-1.92a63.981 63.981 0 0 1 4.199-.235c.994-.017 1.543-.008 1.545.031zM341.3 318.716c-.018.008-.107-.153-.264-.469l-.657-1.391c-.565-1.21-1.338-2.982-2.264-5.185-1.854-4.403-4.225-10.566-6.748-17.402-2.525-6.839-4.835-13.016-6.595-17.451l-2.1-5.248-.564-1.432c-.123-.329-.18-.506-.162-.515.018-.007.107.154.264.47l.657 1.39c.565 1.21 1.338 2.982 2.264 5.185 1.855 4.403 4.225 10.566 6.749 17.405 2.524 6.837 4.834 13.013 6.594 17.449l2.1 5.247.564 1.432c.123.331.18.507.162.515z"/><path style="fill:#263238" d="M392.378 302.254c.005.019-.17.09-.507.209l-1.483.497-5.47 1.772c-4.618 1.498-10.973 3.64-17.991 6.016-7.021 2.378-13.401 4.463-18.052 5.865a202.094 202.094 0 0 1-5.523 1.603l-1.513.398c-.348.085-.533.12-.538.102-.005-.018.17-.09.507-.21l1.483-.496 5.469-1.773c4.618-1.497 10.974-3.64 17.994-6.017 7.019-2.377 13.398-4.462 18.049-5.864a205.295 205.295 0 0 1 5.524-1.604c.606-.159 1.105-.291 1.513-.397.347-.084.532-.119.538-.101z"/><path style="fill:#e8505b" d="m371.541 59.679-5.153 1.843-2.203-6.729c-4.064-12.412-17.034-19.053-28.897-14.809-11.87 4.246-18.216 17.797-14.152 30.209l2.203 6.729-5.17 1.849c-4.02 1.438-6.196 6.072-4.819 10.279l14.336 43.791c1.398 4.271 5.837 6.548 9.857 5.11l53.374-19.093c4.085-1.461 6.263-6.106 4.864-10.376l-14.336-43.791c-1.379-4.207-5.82-6.474-9.904-5.012zm-40.681 7.034c-2.227-6.802 1.249-14.23 7.757-16.558 6.502-2.326 13.606 1.317 15.833 8.119l2.203 6.73-23.59 8.438-2.203-6.729zm30.009 38.853 3.661 11.183c.154.473-.116.956-.573 1.12l-5.122 1.832a.83.83 0 0 1-1.048-.54l-3.661-11.183c-3.967-.168-7.649-2.797-9.027-7.004-1.77-5.409.999-11.323 6.19-13.18 5.188-1.856 10.842 1.044 12.613 6.454 1.377 4.207.008 8.644-3.033 11.318z"/><path style="fill:#263238" d="M366.163 61.401c.049.135-9.55 3.729-21.438 8.025-11.891 4.298-21.567 7.672-21.616 7.537-.049-.135 9.548-3.728 21.44-8.026 11.886-4.296 21.565-7.671 21.614-7.536zM377.497 63.244c.009-.003.048.086.115.262l.291.784 1.068 3.031 3.837 11.178 5.627 16.6c1.045 3.133 2.186 6.388 3.281 9.826.506 1.728.926 3.575.75 5.488a7.33 7.33 0 0 1-.809 2.768 7.577 7.577 0 0 1-1.89 2.228c-1.537 1.229-3.337 1.947-5.075 2.591l-5.155 1.852-9.747 3.489-16.514 5.88-11.148 3.921-3.039 1.041-.795.258c-.181.056-.274.08-.277.071-.003-.008.085-.049.259-.121l.777-.307 3.007-1.133 11.093-4.077 16.476-5.984 9.736-3.518 5.149-1.858c1.725-.639 3.476-1.348 4.926-2.51a7.067 7.067 0 0 0 1.761-2.07 6.807 6.807 0 0 0 .751-2.57c.169-1.797-.228-3.592-.724-5.294-1.077-3.404-2.218-6.688-3.247-9.817l-5.521-16.636-3.68-11.23-.975-3.062-.241-.801c-.054-.183-.076-.277-.067-.28z"/><path style="fill:#263238" d="M349.342 49.454c-.026.044-.531-.269-1.514-.665a13.385 13.385 0 0 0-4.365-.875 14.856 14.856 0 0 0-6.441 1.217c-2.272.984-4.51 2.731-6.112 5.108-1.634 2.368-2.349 5.108-2.35 7.593-.021 2.496.509 4.719 1.018 6.543.527 1.826 1.066 3.275 1.421 4.281.359 1.006.553 1.565.518 1.579-.032.012-.289-.521-.707-1.505a47.83 47.83 0 0 1-1.584-4.249c-.56-1.829-1.14-4.08-1.146-6.652-.027-2.558.705-5.432 2.398-7.883 1.662-2.464 3.991-4.261 6.354-5.256a14.844 14.844 0 0 1 6.649-1.145c1.936.109 3.449.616 4.427 1.057.484.237.854.431 1.087.594.238.155.357.242.347.258zM349.796 88.584c-.006-.013.167-.099.507-.252.337-.157.853-.358 1.543-.555.685-.215 1.563-.371 2.599-.432a8.807 8.807 0 0 1 3.508.523c2.555.898 4.91 3.51 6.066 6.971.556 1.748.605 3.778.046 5.741a13.006 13.006 0 0 1-3.27 5.406l.066-.265c1.328 3.645 2.774 7.612 4.28 11.739l.091.251-.253.085-2.286.766-4.976 1.666-.246.082-.081-.247c-1.37-4.146-2.871-8.055-3.961-11.791l.216.17c-2.047-.137-3.887-.996-5.352-2.116a12.026 12.026 0 0 1-3.358-4.012c-.747-1.482-1.123-3.055-1.06-4.504a10.62 10.62 0 0 1 .839-3.864c.933-2.229 2.323-3.631 3.353-4.396 1.049-.767 1.729-.966 1.729-.966.024.045-.635.296-1.636 1.087-.981.79-2.307 2.194-3.179 4.384-.871 2.137-1.249 5.209.309 8.076a11.698 11.698 0 0 0 3.271 3.843c1.417 1.068 3.185 1.873 5.109 1.991l.169.01.047.16c1.103 3.71 2.612 7.603 3.994 11.766l-.328-.164 4.975-1.669 2.286-.766-.162.335-4.252-11.749-.054-.147.119-.118c1.496-1.479 2.586-3.313 3.16-5.173.546-1.877.514-3.806-.004-5.49-1.093-3.359-3.34-5.913-5.777-6.81a8.665 8.665 0 0 0-3.393-.571c-1.014.036-1.881.165-2.565.353-1.372.354-2.071.696-2.089.652z"/><path style="fill:#455a64" d="m318.891 377.318-99.881-.462c-12.013-.055-21.708-9.836-21.657-21.849l1.059-250.404c.051-12.02 9.838-21.721 21.857-21.665l99.881.461c12.013.056 21.707 9.837 21.656 21.849l-1.059 250.404c-.049 12.02-9.836 21.722-21.856 21.666z"/><path style="fill:#fff" d="m320.008 92.041-19.365-.089c-2.597-.012-4.712 2.18-4.723 4.894l-.016 3.513c-.011 2.715-2.126 4.906-4.723 4.894l-37.747-.174c-2.597-.012-4.693-2.223-4.682-4.938l.015-3.513c.011-2.715-2.085-4.926-4.682-4.938l-6.811-.032-16.949-.078c-8.417-.039-15.272 6.755-15.308 15.173l-1.033 244.412c-.036 8.414 6.754 15.264 15.167 15.303l99.682.46c8.417.039 15.271-6.755 15.308-15.173l1.033-244.413c.036-8.412-6.753-15.261-15.166-15.301z"/><path style="fill:#e8505b" d="m306.593 334.325-74.124-.342c-.767-.004-1.386-.839-1.381-1.866l.082-19.392c.004-1.027.63-1.856 1.397-1.853l74.124.343c.768.004 1.387.839 1.382 1.866l-.082 19.391c-.004 1.027-.63 1.857-1.398 1.853z"/><text transform="matrix(.9566 .0044 -.0042 1 252.587 324.946)" style="fill:#e8e8e3;font-family:'Montserrat-Regular';font-size:8.299px">SING UP</text><path transform="translate(.77 -1.08)" style="fill:#e8505b" d="M221.508 163.811h25.717v4.719h-25.717z"/><path transform="translate(.77 -1.08)" style="opacity:.1" d="M221.508 163.811h25.717v4.719h-25.717z"/><path style="fill:#e0e0e0" d="M322.655 192.826c-.004-.02.215.012.587-.138.351-.136.905-.563.969-1.346l-.014-6.889-.002-4.982.001-1.395c.013-.486.012-.937-.28-1.31a1.476 1.476 0 0 0-1.183-.61l-1.566-.003-14.444-.028-83.641-.31a1.358 1.358 0 0 0-1.102.557c-.278.354-.266.771-.26 1.307l-.013 3.035-.026 6.008-.014 2.972c.016.473-.046 1.039.042 1.406.099.401.403.741.781.901.197.08.381.108.619.106l.732.004 1.459.007 2.901.015 22.208.118 37.602.229 25.35.2 6.892.081 1.792.034c.403.012.61.031.61.031s-.207.017-.611.023l-1.792.018-6.893.017-25.351-.034-37.603-.118a369549.29 369549.29 0 0 0-25.108-.099l-1.46-.006-.732-.003c-.25.005-.56-.034-.816-.146a1.87 1.87 0 0 1-1.08-1.245c-.079-.283-.061-.569-.062-.8l.003-.739a104172.992 104172.992 0 0 0 .048-12.015c.008-.26-.015-.488.026-.799a1.874 1.874 0 0 1 1.859-1.584l83.639.462 14.445.105 1.566.013c.56.005 1.093.293 1.399.733.343.431.34 1.021.32 1.469l-.011 1.395-.044 4.981-.085 6.897a1.633 1.633 0 0 1-1.055 1.387c-.387.138-.602.088-.602.088z"/><path transform="translate(.854 -1.162)" style="fill:#e8505b" d="M228.41 182.011h47.043v4.411H228.41z"/><path transform="translate(.854 -1.162)" style="opacity:.2;fill:#fff" d="M228.41 182.011h47.043v4.411H228.41z"/><path transform="translate(.968 -1.079)" style="fill:#e8505b" d="M221.326 206.874h25.717v4.719h-25.717z"/><path transform="translate(.968 -1.079)" style="opacity:.1" d="M221.326 206.874h25.717v4.719h-25.717z"/><path style="fill:#e0e0e0" d="M321.995 235.887c-.002-.018.21.001.593-.112a2.077 2.077 0 0 0 1.267-1.133c.171-.352.188-.779.173-1.268l-.006-1.589-.008-3.964-.001-4.964v-1.39c.022-.478-.036-.921-.292-1.32a1.959 1.959 0 0 0-1.087-.842c-.447-.142-.982-.065-1.511-.086l-14.396-.028-83.35-.309c-.904-.022-1.739.715-1.826 1.609-.03.951-.016 2.002-.026 2.994l-.026 5.987-.013 2.962c.017.491-.053 1.004.063 1.396.113.414.377.783.73 1.025.367.247.764.338 1.244.32l1.455.007 2.891.015 22.13.117 37.472.229 25.262.199 6.868.081 1.786.034c.402.011.608.03.608.03s-.206.017-.609.023l-1.786.018-6.868.018-25.263-.034-37.472-.117a369725.547 369725.547 0 0 0-25.021-.099l-1.455-.006c-.489.026-1.09-.092-1.532-.408a2.365 2.365 0 0 1-.937-1.315c-.149-.56-.06-1.047-.082-1.535l.011-2.962c.008-1.982.017-3.978.024-5.988.012-1.018-.008-1.984.029-3.053.111-1.151 1.185-2.098 2.345-2.069l83.349.461 14.395.106c.523.028 1.052-.057 1.593.109.523.163.964.521 1.234.969.287.439.349 1 .32 1.462l-.011 1.391-.044 4.964-.041 3.964-.018 1.588c.009.477-.02.95-.207 1.311a2.11 2.11 0 0 1-1.348 1.141c-.396.099-.606.061-.606.061z"/><path transform="translate(1.17 -1.073)" style="fill:#e8505b" d="M221.137 251.787h25.717v4.719h-25.717z"/><path transform="translate(1.17 -1.073)" style="opacity:.1" d="M221.137 251.787h25.717v4.719h-25.717z"/><path style="fill:#e0e0e0" d="M321.804 280.8c-.001-.018.211.001.593-.111.364-.119.948-.42 1.267-1.134.171-.352.188-.779.173-1.268l-.006-1.589-.007-3.964-.002-4.965.001-1.391c.021-.478-.036-.92-.292-1.319a1.968 1.968 0 0 0-1.087-.843c-.447-.141-.982-.064-1.512-.086l-14.395-.028-83.35-.309c-.905-.022-1.739.715-1.826 1.609-.03.951-.016 2.002-.025 2.994l-.026 5.987-.013 2.962c.017.49-.054 1.003.062 1.396.113.414.377.783.73 1.025.367.247.764.339 1.244.32l1.455.007a67120.849 67120.849 0 0 1 25.021.132l37.472.229 25.262.199 6.868.081 1.786.034c.401.014.607.032.607.032s-.206.017-.608.023l-1.786.018-6.869.018-25.263-.034-37.472-.117-22.13-.087-2.891-.013-1.455-.006c-.489.026-1.09-.093-1.532-.408a2.368 2.368 0 0 1-.937-1.315c-.148-.56-.06-1.048-.082-1.535a103020.586 103020.586 0 0 0 .036-8.949c.012-1.017-.008-1.983.029-3.053.111-1.151 1.185-2.098 2.345-2.068l83.349.461 14.395.105c.523.027 1.052-.057 1.593.109.522.163.963.521 1.234.97.287.439.349 1 .32 1.462l-.012 1.39-.043 4.964-.041 3.965-.02 1.588c.009.478-.02.95-.207 1.311a2.113 2.113 0 0 1-1.347 1.141c-.395.097-.606.06-.606.06z"/><path transform="translate(1.052 -1.16)" style="fill:#e8505b" d="M228.228 225.074h47.044v4.411h-47.044z"/><path transform="translate(1.052 -1.16)" style="opacity:.2;fill:#fff" d="M228.228 225.074h47.044v4.411h-47.044z"/><path style="fill:#e8505b" d="M232.511 272.637c-.005 1.211-.93 2.189-2.066 2.184-1.136-.006-2.052-.992-2.047-2.203.005-1.211.93-2.19 2.066-2.184 1.136.005 2.052.991 2.047 2.203zM238.884 272.667c-.005 1.211-.93 2.189-2.066 2.184-1.136-.005-2.052-.991-2.047-2.203.005-1.211.93-2.189 2.066-2.184 1.136.004 2.052.991 2.047 2.203zM245.257 272.696c-.005 1.211-.93 2.19-2.066 2.184-1.136-.005-2.052-.991-2.047-2.203.005-1.211.93-2.189 2.066-2.184 1.135.005 2.052.991 2.047 2.203zM251.629 272.725c-.005 1.211-.93 2.19-2.065 2.184-1.136-.005-2.053-.991-2.047-2.203.005-1.211.93-2.189 2.066-2.184 1.135.006 2.052.992 2.046 2.203zM258.003 272.754c-.005 1.212-.93 2.19-2.066 2.184-1.136-.005-2.053-.991-2.048-2.202.006-1.212.931-2.19 2.066-2.185 1.136.006 2.052.992 2.048 2.203zM264.375 272.784c-.005 1.212-.93 2.19-2.066 2.184-1.136-.005-2.052-.991-2.047-2.202.005-1.212.93-2.189 2.065-2.185 1.137.005 2.053.992 2.048 2.203zM270.749 272.813c-.006 1.212-.931 2.19-2.066 2.185-1.136-.006-2.052-.992-2.047-2.203.005-1.212.93-2.189 2.065-2.184 1.135.005 2.052.991 2.048 2.202zM277.121 272.842c-.005 1.212-.93 2.19-2.065 2.185-1.136-.006-2.053-.991-2.047-2.203.005-1.211.93-2.189 2.065-2.184 1.136.005 2.052.991 2.047 2.202zM283.494 272.873c-.005 1.211-.93 2.189-2.065 2.184-1.136-.005-2.053-.991-2.048-2.203.006-1.211.931-2.188 2.066-2.184 1.136.004 2.052.991 2.047 2.203z"/><g style="opacity:.2"><path style="fill:#fff" d="M232.511 272.637c-.005 1.211-.93 2.189-2.066 2.184-1.136-.006-2.052-.992-2.047-2.203.005-1.211.93-2.19 2.066-2.184 1.136.005 2.052.991 2.047 2.203zM238.884 272.667c-.005 1.211-.93 2.189-2.066 2.184-1.136-.005-2.052-.991-2.047-2.203.005-1.211.93-2.189 2.066-2.184 1.136.004 2.052.991 2.047 2.203zM245.257 272.696c-.005 1.211-.93 2.19-2.066 2.184-1.136-.005-2.052-.991-2.047-2.203.005-1.211.93-2.189 2.066-2.184 1.135.005 2.052.991 2.047 2.203zM251.629 272.725c-.005 1.211-.93 2.19-2.065 2.184-1.136-.005-2.053-.991-2.047-2.203.005-1.211.93-2.189 2.066-2.184 1.135.006 2.052.992 2.046 2.203zM258.003 272.754c-.005 1.212-.93 2.19-2.066 2.184-1.136-.005-2.053-.991-2.048-2.202.006-1.212.931-2.19 2.066-2.185 1.136.006 2.052.992 2.048 2.203zM264.375 272.784c-.005 1.212-.93 2.19-2.066 2.184-1.136-.005-2.052-.991-2.047-2.202.005-1.212.93-2.189 2.065-2.185 1.137.005 2.053.992 2.048 2.203zM270.749 272.813c-.006 1.212-.931 2.19-2.066 2.185-1.136-.006-2.052-.992-2.047-2.203.005-1.212.93-2.189 2.065-2.184 1.135.005 2.052.991 2.048 2.202zM277.121 272.842c-.005 1.212-.93 2.19-2.065 2.185-1.136-.006-2.053-.991-2.047-2.203.005-1.211.93-2.189 2.065-2.184 1.136.005 2.052.991 2.047 2.202zM283.494 272.873c-.005 1.211-.93 2.189-2.065 2.184-1.136-.005-2.053-.991-2.048-2.203.006-1.211.931-2.188 2.066-2.184 1.136.004 2.052.991 2.047 2.203z"/></g><path style="fill:#e8505b" d="M274.443 128.506c1.346-.565 2.303-1.952 2.311-3.587.009-2.142-1.612-3.886-3.621-3.896-2.008-.009-3.644 1.72-3.652 3.862-.007 1.65.957 3.055 2.317 3.621-5.597.843-5.343 6.926-5.343 6.926l13.234.061s.302-6.149-5.246-6.987z"/><path style="opacity:.1" d="M274.443 128.506c1.346-.565 2.303-1.952 2.311-3.587.009-2.142-1.612-3.886-3.621-3.896-2.008-.009-3.644 1.72-3.652 3.862-.007 1.65.957 3.055 2.317 3.621-5.597.843-5.343 6.926-5.343 6.926l13.234.061s.302-6.149-5.246-6.987z"/><path transform="translate(.66 -1.255)" style="fill:#e8505b" d="M248.744 139.366h47.193v5.643h-47.193z"/><path transform="translate(.66 -1.255)" style="opacity:.2;fill:#fff" d="M248.744 139.366h47.193v5.643h-47.193z"/><path style="fill:#e8505b" d="M122.465 168.677c0 .01-.158.027-.464.052l-1.361.099c-.601.01-1.332.141-2.194.293-.429.087-.903.122-1.387.265l-1.55.43c-2.158.681-4.757 1.763-7.374 3.658-2.61 1.88-5.221 4.569-7.256 8.077-1.07 1.724-1.846 3.715-2.543 5.808-.567 2.13-1.069 4.393-1.107 6.778-.106 1.189.014 2.397.064 3.625.032.614.164 1.222.243 1.841.084.619.175 1.241.351 1.852.506 2.486 1.519 4.923 2.8 7.258 2.561 4.688 6.865 8.727 12.18 11.068 2.659 1.173 5.599 1.806 8.589 1.929 2.993.19 6.059-.291 8.965-1.29l.879-.323.116-.042.105.053 12.612 6.403-.375.32-3.905-12.121-.048-.15.111-.111c3.179-3.183 5.394-7.05 6.622-11.009 1.231-3.971 1.441-8.015.961-11.721a27.169 27.169 0 0 0-3.313-9.933 27.013 27.013 0 0 0-5.695-6.973c-2.089-1.795-4.255-3.011-6.196-3.942-1.988-.832-3.76-1.365-5.233-1.649l-1.962-.334-1.447-.101-.887-.068c-.199-.021-.301-.034-.301-.042 0-.007.102-.009.302-.006l.89.025 1.457.059 1.98.295c1.488.26 3.283.771 5.302 1.589 1.97.917 4.174 2.127 6.304 3.927a27.178 27.178 0 0 1 5.82 7.026 27.48 27.48 0 0 1 3.415 10.067c.504 3.762.306 7.874-.934 11.919-1.237 4.033-3.483 7.98-6.719 11.232l.063-.261 3.923 12.115.198.611-.573-.29-12.616-6.396.221.011-.898.33c-2.971 1.022-6.107 1.511-9.166 1.317-3.055-.127-6.061-.778-8.776-1.98-5.429-2.397-9.808-6.529-12.405-11.311-1.3-2.382-2.321-4.867-2.83-7.398-.176-.622-.266-1.255-.35-1.885-.078-.629-.209-1.249-.24-1.873-.047-1.248-.164-2.477-.051-3.684.049-2.423.568-4.721 1.156-6.88.718-2.122 1.518-4.137 2.613-5.88 2.085-3.545 4.751-6.25 7.41-8.129 2.665-1.894 5.304-2.958 7.49-3.614l1.569-.409c.489-.136.968-.164 1.401-.242.871-.137 1.607-.251 2.212-.243l1.369-.046c.306-.006.463-.005.463.004z"/><path style="fill:#e8505b" d="M128.168 192.026h-1.848l-4.033-5.621v-3.689s-2.856-.176-2.521 4.655c.336 4.831-.027 3.601-.027 3.601s-6.065.023-6.569.55c-.367.383-.532 6.408-.596 9.675-.032 1.645.977 3.175 2.507 3.564.217.056.437.088.653.088 1.513 0 9.242-1.23 9.242-1.23h3.192v-11.593zM133.458 191.013l-1.136 12.64h-3.165v-12.385zM171.15 448.341v-8.556l-15.331-.103-.127 12.925.95.071c4.229.273 21.521.671 24.354-.206 3.161-.977-9.846-4.131-9.846-4.131z"/><path style="fill:#263238" d="M181.359 451.67c0 .145-5.735.261-12.807.261-7.075 0-12.808-.116-12.808-.261 0-.144 5.733-.26 12.808-.26 7.072.001 12.807.117 12.807.26zM171.419 450.087c-.126-.066-.018-.518.311-.964.328-.447.729-.685.829-.584.103.103-.107.479-.41.893-.303.411-.601.724-.73.655zM172.397 450.651c-.133-.05-.064-.557.237-1.09.3-.535.699-.855.81-.768.115.09-.078.526-.357 1.023-.279.496-.553.888-.69.835z"/><path style="fill:#263238" d="M160.363 451.632c-.06.042-.288-.183-.62-.559-.334-.373-.771-.901-1.345-1.347-.569-.444-1.196-.667-1.659-.725-.466-.063-.772.01-.798-.065-.027-.056.258-.27.811-.303.544-.037 1.313.17 1.964.68.647.505 1.061 1.107 1.324 1.543.262.44.38.736.323.776zM171.466 448.479c.075.121-.188.418-.626.578-.437.162-.831.105-.851-.035-.023-.144.288-.311.671-.453.384-.141.73-.214.806-.09zM171.226 447.652c.014.144-.395.267-.912.273-.518.007-.93-.104-.919-.248.01-.144.418-.266.912-.273.493-.006.905.105.919.248z"/><path style="fill:#e8505b" d="m208.901 448.341.001-8.556-15.331-.103-.127 12.794.95.07c4.229.273 21.521.803 24.355-.074 3.16-.977-9.848-4.131-9.848-4.131z"/><path style="fill:#263238" d="M219.111 451.69c0 .143-5.734.261-12.807.261-7.075 0-12.808-.117-12.808-.261 0-.144 5.733-.261 12.808-.261 7.072 0 12.807.117 12.807.261zM209.171 450.087c-.126-.066-.018-.518.312-.964.328-.447.729-.685.829-.584.103.103-.107.479-.41.893-.304.411-.603.724-.731.655zM210.149 450.651c-.133-.05-.064-.557.237-1.09.3-.535.699-.855.81-.768.115.09-.078.526-.356 1.023-.28.496-.555.888-.691.835z"/><path style="fill:#263238" d="M198.114 451.632c-.06.042-.288-.183-.62-.559-.333-.373-.771-.901-1.345-1.347-.569-.444-1.195-.667-1.659-.725-.466-.063-.772.01-.798-.065-.027-.056.258-.27.81-.303.544-.037 1.314.17 1.964.68.648.505 1.06 1.107 1.324 1.543.264.44.382.736.324.776zM209.218 448.479c.075.121-.188.418-.625.578-.438.162-.831.105-.852-.035-.023-.144.288-.311.671-.453.384-.141.73-.214.806-.09zM208.977 447.652c.014.144-.395.267-.912.273-.518.007-.929-.104-.919-.248.01-.144.419-.266.913-.273.493-.006.904.105.918.248z"/><path style="fill:#ffbe9d" d="M265.378 194.445c-.4-.412-1.384-.218-1.384-.218s.172-1.169-.01-1.734c-.181-.565-1.441-.456-1.441-.456s-.078-.544.032-1.422c.028-.22-.094-.382-.293-.503-.597-.361-1.884-.344-1.884-.344-.772-.552 2.352-4.92 3.51-6.318 1.145-1.381.952-2.488-.081-2.486-.704.001-4.351 4.2-5.464 5.61-1.112 1.409-4.096 5.33-4.197 2.201-.102-3.129-1.359-5.496-2.145-5.899-.786-.403-1.634.543-1.199 1.412.352.702.574 2.055.7 3.078.104.844.069 1.7-.115 2.529-.522 2.344-1.083 3.866-1.346 4.517l-.077-.043s-21.827 20.929-23.4 22.423c-1.416 1.344-29.778-1.59-35.46-2.193-1.553-.174-3.853-.486-5.846-.398-2.465.108-2.903.458-5.37.491-7.554.101-13.849.836-18.534 1.629a15.348 15.348 0 0 0-12.061 10.461c-5.735 17.897-18.709 60.268-21.021 84.072-1.821 3.424-3.856 7.423-4.683 9.673-1.607 4.375-1.217 4.524-.675 4.625 1.454.269 3.118-7.588 3.739-5.692.622 1.897-3.152 9.373-1.621 9.592 1.996.285 3.587-7.972 3.773-8.661.181-.669 1.188-.443.987.17-.29.881-3.104 10.211-1.146 10.51 1.085.166 1.202-1.811 1.202-1.811s1.99-8.923 2.909-8.751c.934.175-.058 5.453-.519 7.209-.455 1.735.186 2.657 1.122 2.221.638-.298 2.175-5.644 2.589-7.391.415-1.747 1.466-6.56 2.878-3.766 1.412 2.794 3.549 4.41 4.432 4.445.882.034 1.252-1.181.491-1.786-.615-.488-1.387-1.621-1.933-2.496a7.44 7.44 0 0 1-.962-2.342c-.703-3.2-.697-5.061-.697-5.061l-.163-1.028c2.239-11.093 8.694-43.638 17.966-64.43l3.818 7.857 1.657 5.816-10.175 25.139 43.413-.572-6.472-24.939 7.863-26.005h-.001c8.51.19 30.367.507 34.04-1.135 4.579-2.046 28.278-31.92 28.278-31.92h-.001c1.601-1.275 3.229-2.646 4.43-3.843.002-.002 1.415-1.145.547-2.037z"/><path style="fill:#e8505b" d="M151.392 266.387c1.257-4.299 7.729-25.557 7.729-25.557s3.176 17.331 2.341 19.418c-.962 2.405-2.73 5.157-2.73 5.157-7.34 11.179-6.377 16.766-6.377 16.766l44.34-1.352c.108-6.201-3.563-20.618-4.33-22.915-.768-2.297 1.778-9.836 1.778-9.836s5.011-5.089 4.817-7.708c-.391-5.276-.874-6.98-.874-6.98l26.98.993-.848-18.307-38.783-3.881c-1.342 3.819-13.555 1.948-13.555 1.948-13.185.433-13.983 2.858-19.482 7.115-5.498 4.257-14.553 40.819-14.553 40.819l13.547 4.32z"/><path style="fill:#263238" d="M177.615 262.063c-.001.069-.893.128-2.337.118a62.693 62.693 0 0 1-5.63-.318 62.57 62.57 0 0 1-5.582-.81c-1.416-.278-2.279-.513-2.266-.581.014-.073.899.034 2.325.218 1.426.185 3.394.435 5.575.654 2.18.219 4.158.366 5.592.469 1.435.104 2.324.175 2.323.25zM180.65 258.292c.019.064-.896.411-2.421.825a43.65 43.65 0 0 1-6.061 1.156 43.485 43.485 0 0 1-6.165.296c-1.58-.045-2.55-.17-2.546-.235.003-.077.977-.084 2.545-.133a71.564 71.564 0 0 0 6.104-.445 72 72 0 0 0 6.038-.997c1.536-.32 2.485-.542 2.506-.467zM195.565 241.471c.069.015-.045.879-.303 2.262a102.307 102.307 0 0 1-1.174 5.367 103.05 103.05 0 0 1-1.442 5.303c-.411 1.346-.709 2.165-.778 2.146-.07-.02.103-.873.422-2.241l1.292-5.331 1.321-5.323c.349-1.362.591-2.198.662-2.183zM151.857 263.84c-.038.139-3.096-.574-6.83-1.593-3.735-1.02-6.731-1.957-6.693-2.097.038-.139 3.095.575 6.83 1.594 3.734 1.019 6.731 1.958 6.693 2.096zM198.575 233.145c0 .024-.411.067-1.148-.006a11.656 11.656 0 0 1-3.049-.727 12.78 12.78 0 0 1-3.979-2.423c-1.321-1.173-2.502-2.787-3.255-4.686a12.882 12.882 0 0 1-.896-5.637c.116-1.758.582-3.347 1.369-4.46.779-1.128 1.812-1.674 2.531-1.863.364-.097.658-.12.854-.115.197.005.298.027.298.043.002.049-.415.026-1.091.265-.664.238-1.598.799-2.286 1.876-1.361 2.14-1.741 6.047-.294 9.699a12.359 12.359 0 0 0 3.094 4.524 13.069 13.069 0 0 0 3.793 2.436c2.402.996 4.077.963 4.059 1.074zM221.884 234.007c-.143 0-.252-4.126-.242-9.215.01-5.091.135-9.215.278-9.215.144.001.252 4.126.242 9.216-.009 5.089-.134 9.215-.278 9.214z"/><path style="fill:#ffbe9d" d="M185.198 213.3c.109-2.232.343-4.753.343-4.753s5.518-.608 5.853-6.309c.335-5.701 0-18.846 0-18.846l-10.051-5.118-11.056 8.725 1.675 28.501 10.173.647c1.604.102 2.981-1.176 3.063-2.847z"/><path style="fill:#eb996e" d="M186.192 197.729c.016.004.017.107-.087.245a.783.783 0 0 1-.635.28c-.641-.031-1.257-.739-1.484-1.603a2.727 2.727 0 0 1-.027-1.267c.068-.377.286-.756.6-.859a.537.537 0 0 1 .425.01.484.484 0 0 1 .226.23c.075.17.017.273.002.265-.023-.001-.017-.095-.101-.202a.37.37 0 0 0-.475-.1c-.212.096-.357.367-.411.714a2.66 2.66 0 0 0 .046 1.13c.2.774.737 1.408 1.214 1.465a.726.726 0 0 0 .538-.147c.11-.09.148-.171.169-.161z"/><path style="fill:#263238" d="M194.821 180.315c-.768-2.624-3.558-3.928-6.1-4.648-3.867-1.096-8.056-1.581-11.834-.19-3.778 1.391-8.322 3.838-8.321 8.012-2.23-.184-3.504 1.77-4.389 4.191a15.974 15.974 0 0 0-.948 4.599l-.037-.012c-.287 5.463-1.809 12.99-5.351 17.031-1.956 2.231-4.772 3.772-5.912 6.551-.991 2.415-.478 5.269-1.415 7.707-.827 2.152-2.658 3.68-3.971 5.552-2.859 4.078-3.054 9.839-.953 14.39s6.264 7.881 10.885 9.407c4.621 1.526 9.655 1.358 14.358.134 3.472-.904 6.85-2.4 9.617-4.765 2.767-2.365 4.89-5.652 5.523-9.322.704-4.085-.439-8.233-1.28-12.29-2.66-12.835-1.9-13.502 1.457-25.408.076-.21.123-.429.181-.645l.132-.471-.007-.002a7.34 7.34 0 0 0 .157-1.424c-.972.383-2.146.128-2.892-.626-.745-.754-1.023-1.97-.684-2.993.39-1.177 1.47-1.963 2.579-2.43s2.302-.698 3.391-1.215c2.309-1.099 3.91-3.379 4.999-5.768.765-1.675 1.334-3.593.815-5.365z"/><path style="fill:#e8505b" d="M186.587 197.972c.035-.015.229.357.526.988.297.631.695 1.522 1.138 2.546l.083.194-.212.018-1.018.088c-.698.045-1.28.129-1.956.122a.356.356 0 0 1-.258-.227.574.574 0 0 1-.015-.278c.029-.157.064-.273.094-.406l.177-.708c.221-.864.379-1.394.421-1.384.042.01-.04.557-.206 1.432l-.139.715c-.051.242-.139.603-.009.575.498-.021 1.207-.104 1.865-.153l1.018-.081-.128.212a96.297 96.297 0 0 1-1.039-2.588c-.245-.651-.377-1.05-.342-1.065z"/><path style="fill:#263238" d="m152.355 282.171 44.34-1.352 19.285 75.339-3.552 86.419h-23.469l2.908-84.579-17.152-52.446 2.643 140.376-23.694.35-2.496-131.948c-.104-3.667-1.311-11.941-.862-15.579l2.049-16.58z"/><path style="fill:#455a64" d="M180.621 306.617c-.009.069-.841.028-2.175-.129s-3.169-.439-5.179-.842c-2.01-.405-3.811-.855-5.102-1.227s-2.074-.653-2.056-.722c.04-.145 3.259.636 7.261 1.438 3.999.809 7.27 1.333 7.251 1.482zM212.215 437.837c0 .145-5.314.261-11.866.261-6.555 0-11.867-.116-11.867-.261 0-.143 5.312-.26 11.867-.26 6.552.001 11.866.117 11.866.26zM177.146 442.281c0 .145-5.154.261-11.512.261-6.359 0-11.513-.116-11.513-.261 0-.144 5.154-.26 11.513-.26 6.358 0 11.512.116 11.512.26z"/><path style="fill:#455a64" d="M174.094 441.921c-.144.002-.767-30.672-1.392-68.503-.625-37.845-1.015-68.517-.871-68.519.144-.002.767 30.665 1.392 68.51.625 37.832 1.015 68.509.871 68.512zM209.063 437.837c-.009 0-.012-.139-.011-.408l.022-1.198.133-4.604.588-16.931 2.136-55.85.023-.588.008.074-13.449-53.853-4.013-16.313-1.065-4.439-.264-1.157c-.057-.262-.082-.396-.073-.398.008-.002.05.129.124.386l.314 1.145 1.16 4.416 4.172 16.272 13.598 53.815.009.036-.001.038-.023.588-2.289 55.843-.753 16.924-.231 4.601-.073 1.196c-.019.269-.033.406-.042.405z"/><path style="fill:#455a64" d="M201.414 356.5c.024.142-2.297.658-5.185 1.154-2.156.371-4.018.625-4.831.671l-.001-.203c.27.074.415.132.409.168-.005.036-.162.047-.441.035l-.606-.026.605-.177c.782-.229 2.622-.61 4.778-.98 2.886-.497 5.247-.785 5.272-.642zM200.965 359.375c-.02.145-2.103-.016-4.668-.213-2.565-.202-4.648-.366-4.645-.513.003-.142 2.104-.21 4.686-.007 2.58.199 4.646.593 4.627.733z"/><path style="opacity:.2" d="M152.158 283.763c1.072 1.509 2.601 2.038 4.378 2.329 1.776.291 3.589.097 5.377-.102 11.445-1.27 23.573-2.441 34.782-5.172-14.509.813-29.831.539-44.34 1.352l-.153 1.238M167.114 304.214l8.174 31.733-.572-30.396z"/></svg>